Coordinates
version=1
nRows=11
nColumns=63
inDegrees=yes

Units are S.I. units (second, meters, Newtons, ...)
If the header above contains a line with 'inDegrees', this indicates whether rotational values are in degrees (yes) or radians (no).

endheader
time	pelvis_tilt	pelvis_list	pelvis_rotation	pelvis_tx	pelvis_ty	pelvis_tz	hip_flexion_r	hip_adduction_r	hip_rotation_r	knee_angle_r	knee_angle_r_beta	ankle_angle_r	subtalar_angle_r	mtp_angle_r	hip_flexion_l	hip_adduction_l	hip_rotation_l	knee_angle_l	knee_angle_l_beta	ankle_angle_l	subtalar_angle_l	mtp_angle_l	L5_S1_Flex_Ext	L5_S1_Lat_Bending	L5_S1_axial_rotation	L4_L5_Flex_Ext	L4_L5_Lat_Bending	L4_L5_axial_rotation	L3_L4_Flex_Ext	L3_L4_Lat_Bending	L3_L4_axial_rotation	L2_L3_Flex_Ext	L2_L3_Lat_Bending	L2_L3_axial_rotation	L1_L2_Flex_Ext	L1_L2_Lat_Bending	L1_L2_axial_rotation	L1_T12_Flex_Ext	L1_T12_Lat_Bending	L1_T12_axial_rotation	Abs_r3	Abs_r2	Abs_r1	Abs_t1	Abs_t2	neck_flexion	neck_bending	neck_rotation	arm_flex_r	arm_add_r	arm_rot_r	elbow_flex_r	pro_sup_r	wrist_flex_r	wrist_dev_r	arm_flex_l	arm_add_l	arm_rot_l	elbow_flex_l	pro_sup_l	wrist_flex_l	wrist_dev_l
      2.06666667	      0.77839574	     -1.42080380	     81.83591574	      0.20440195	      0.51664447	      0.98828138	      4.43181829	      3.26426114	     13.65314276	     10.53924058	      0.18394445	     33.79598808	      0.84455541	      0.00000000	      0.46011573	     -2.01451158	      1.62536434	      8.34125789	      0.14558241	     26.90313887	    -16.12683887	      0.00000000	      0.05010520	     -0.40319060	     -0.34059414	      0.09305036	     -0.53624350	     -0.36188128	      0.08231783	     -0.98031762	     -0.36188128	      0.05726523	     -0.98031762	     -0.29801988	      0.04652769	     -0.82218627	     -0.27673274	      0.02863011	     -0.62454224	     -0.25544561	      0.35789640	     -4.56097270	     -1.89428245	      0.00000000	      0.00000000	     12.16799366	      2.99402430	      0.39598010	    -22.72171984	    -37.03021218	     29.02641058	    116.98641975	     82.00393774	     12.92642946	     -1.07915295	    -15.52532864	    -40.32185597	     29.62133815	    112.71055278	     87.54127821	      9.41349169	     -0.34665988
      2.08333333	      0.71901021	     -1.54224362	     81.49736626	      0.20486385	      0.51698931	      0.98743204	      4.63216273	      3.28564521	     13.67273293	     10.78891477	      0.18830209	     33.98418405	      1.12374686	      0.00000000	      0.31956096	     -1.98694862	      1.08085956	      8.02035219	      0.13998155	     26.84098385	    -15.83741506	      0.00000000	      0.08053748	     -0.39379288	     -0.14338982	      0.14956616	     -0.52374452	     -0.15235168	      0.13231503	     -0.95746800	     -0.15235168	      0.09204629	     -0.95746800	     -0.12546609	      0.07478711	     -0.80302243	     -0.11650423	      0.04601912	     -0.60998516	     -0.10754236	      0.57527119	     -4.45466377	     -0.79749115	      0.00000000	      0.00000000	     12.31467111	      2.44610530	      0.05710402	    -24.05695870	    -37.69738763	     26.85405587	    119.70772939	     85.36616152	      6.53755894	     -4.36311270	    -17.89965163	    -41.71082919	     28.25705306	    114.57383333	     88.15915369	      7.50227457	     -1.57093760
      2.10000000	      0.71704085	     -1.64971404	     81.30517034	      0.20494661	      0.51760748	      0.98683346	      4.80937427	      3.32149302	     13.37911790	     11.04083187	      0.19269887	     34.09145401	      1.60890214	      0.00000000	      0.20939522	     -2.01401753	      0.59480917	      7.70666097	      0.13450661	     26.67199279	    -15.49616820	      0.00000000	      0.09665241	     -0.37821326	      0.09742756	      0.17949319	     -0.50302364	      0.10351678	      0.15879024	     -0.91958772	      0.10351678	      0.11046404	     -0.91958772	      0.08524912	      0.08975143	     -0.77125248	      0.07915989	      0.05522719	     -0.58585234	      0.07307067	      0.69037848	     -4.27842405	      0.54186287	      0.00000000	      0.00000000	     12.32618006	      1.88026205	     -0.68636520	    -25.43429794	    -38.47148874	     24.82463673	    122.04702186	     87.80302947	     -0.19644699	     -7.70058183	    -19.63990992	    -43.51445549	     27.64824762	    116.53741123	     88.58675888	      5.20701075	     -3.23065352
      2.11666667	      0.76085257	     -1.71605789	     81.23446398	      0.20455450	      0.51842941	      0.98628165	      4.94037169	      3.33805896	     12.61185743	     11.27314795	      0.19675355	     34.22451659	      2.55669824	      0.00000000	      0.06921888	     -2.05587292	      0.16372833	      7.35062909	      0.12829268	     26.58279178	    -15.15292631	      0.00000000	      0.10313358	     -0.35575419	      0.37140892	      0.19152937	     -0.47315308	      0.39462197	      0.16943816	     -0.86498075	      0.39462197	      0.11787137	     -0.86498075	      0.32498280	      0.09576984	     -0.72545395	      0.30176974	      0.05893053	     -0.55106325	      0.27855669	      0.73667286	     -4.02436260	      2.06566496	      0.00000000	      0.00000000	     12.00848221	      1.35225798	     -1.66403170	    -27.10158419	    -39.40173528	     22.92134962	    123.91166990	     88.72426233	     -5.90166576	    -11.01438977	    -21.15919172	    -45.41565165	     27.25578583	    118.53588537	     88.85872385	      2.25924275	     -5.45369900
      2.13333333	      0.81956566	     -1.82453753	     81.24876784	      0.20387991	      0.51932241	      0.98577793	      5.12336472	      3.34440990	     11.71465904	     11.48488870	      0.20044912	     34.34729843	      3.68873400	      0.00000000	      0.04667680	     -2.10442178	     -0.15605222	      7.06389660	      0.12328825	     26.49119235	    -14.96723672	      0.00000000	      0.12437382	     -0.33115684	      0.67396118	      0.23097462	     -0.44043859	      0.71608375	      0.20433374	     -0.80517474	      0.71608375	      0.14214684	     -0.80517474	      0.58971603	      0.11549353	     -0.67529502	      0.54759345	      0.07106720	     -0.51296194	      0.50547088	      0.88838974	     -3.74611238	      3.74836987	      0.00000000	      0.00000000	     11.13964279	      0.84030719	     -3.00635914	    -29.39952903	    -40.31028550	     20.89874203	    125.27309763	     89.11415614	     -9.76816717	    -14.42333647	    -22.62321805	    -47.21983518	     26.64636462	    120.45787742	     88.99689520	     -0.23102545	     -7.77772207
      2.15000000	      0.89808391	     -1.65364193	     81.66576109	      0.20285284	      0.52034259	      0.98574758	      4.95934163	      3.36256849	     11.15199716	     11.55369446	      0.20165001	     34.37184699	      3.88446485	      0.00000000	     -0.12550990	     -2.15413210	     -0.01506230	      6.89117084	      0.12027362	     26.54090052	    -14.71874438	      0.00000000	      0.08559407	     -0.31170958	      0.89141814	      0.15895675	     -0.41457374	      0.94713177	      0.14062250	     -0.75789067	      0.94713177	      0.09782547	     -0.75789067	      0.77999087	      0.07948266	     -0.63563817	      0.72427724	      0.04890845	     -0.48283814	      0.66856361	      0.61138990	     -3.52612110	      4.95780027	      0.00000000	      0.00000000	     10.55575533	      0.99131412	     -3.55012937	    -31.97080840	    -41.07888252	     18.72571792	    126.59458150	     89.27153904	    -11.17167658	    -15.89658988	    -24.34122547	    -48.69955486	     24.98852704	    122.44871483	     89.02969600	     -1.05633725	     -9.07016423
      2.16666667	      0.90012237	     -1.73301148	     81.66529846	      0.20177768	      0.52106396	      0.98610002	      5.26531392	      2.99836563	      7.40799646	     11.81172067	      0.20615342	     35.00128210	      8.81737015	      0.00000000	     -0.02204507	     -2.13453036	     -0.62828839	      6.74691967	      0.11775596	     26.59067145	    -14.12875995	      0.00000000	      0.09825371	     -0.29612881	      1.29347739	      0.18246696	     -0.39385132	      1.37431973	      0.16142102	     -0.72000759	      1.37431973	      0.11229416	     -0.72000759	      1.13179272	      0.09123839	     -0.60386587	      1.05095038	      0.05614217	     -0.45870352	      0.97010804	      0.70181641	     -3.34986831	      7.19393321	      0.00000000	      0.00000000	      9.67458356	      0.79071710	     -5.47680109	    -35.28996833	    -41.72417249	     17.12605573	    127.33463297	     89.34829203	    -14.51603342	    -19.33676891	    -23.99136291	    -50.52917285	     26.25156625	    123.60210735	     88.99910229	     -4.85344159	    -12.27548278
      2.18333333	      0.87795366	     -1.53767856	     82.01392877	      0.20102970	      0.52185766	      0.98640873	      5.12855461	      2.92151680	      6.94129350	     11.86792044	      0.20713429	     34.98067115	      8.92678851	      0.00000000	     -0.10628657	     -2.07907998	     -0.38772659	      6.75533588	      0.11790285	     26.64234272	    -13.91959598	      0.00000000	      0.06970633	     -0.29758114	      1.51133620	      0.12945162	     -0.39578291	      1.60579472	      0.11452052	     -0.72353877	      1.60579472	      0.07966736	     -0.72353877	      1.32241918	      0.06472929	     -0.60682745	      1.22796067	      0.03983019	     -0.46095318	      1.13350215	      0.49790532	     -3.36629732	      8.40559857	      0.00000000	      0.00000000	      9.00235810	      1.27363015	     -6.23319604	    -37.90456619	    -42.16288841	     15.73273511	    128.15055883	     89.35757139	    -15.18505531	    -20.39398017	    -24.97931941	    -51.50897139	     25.21450514	    124.90799573	     88.96580689	     -4.91943390	    -13.13131199
      2.20000000	      0.82617006	     -1.30927525	     82.31850410	      0.20056899	      0.52251584	      0.98665465	      4.95846037	      2.81615676	      6.47262446	     11.91886468	      0.20802343	     35.06141738	      9.07734685	      0.00000000	     -0.20883188	     -1.98865579	     -0.13072560	      6.84490115	      0.11946606	     26.74592969	    -13.75175330	      0.00000000	      0.04104068	     -0.30688187	      1.69830774	      0.07621665	     -0.40815289	      1.80445197	      0.06742574	     -0.74615258	      1.80445197	      0.04690540	     -0.74615258	      1.48601927	      0.03811038	     -0.62579351	      1.37987504	      0.02345065	     -0.47536001	      1.27373080	      0.29314950	     -3.47150908	      9.44547813	      0.00000000	      0.00000000	      8.35541268	      1.69138134	     -6.93333033	    -40.25874496	    -42.47408294	     14.58718830	    128.87137710	     89.32714481	    -15.61936524	    -21.49978005	    -25.64066442	    -52.23835462	     24.68877064	    125.89953528	     88.89085896	     -4.90435170	    -13.73937094
      2.21666667	      0.77943646	     -1.20334511	     82.56559069	      0.20024745	      0.52315908	      0.98636482	      4.82870570	      2.70168836	      5.86264743	     11.86281132	      0.20704512	     34.98470774	      9.60657882	      0.00000000	     -0.25733884	     -1.91613465	      0.32501829	      6.88063871	      0.12008980	     26.66690216	    -13.53379413	      0.00000000	      0.04426222	     -0.31788842	      1.88662320	      0.08219936	     -0.42279159	      2.00453715	      0.07271840	     -0.77291389	      2.00453715	      0.05058729	     -0.77291389	      1.65079530	      0.04110189	     -0.64823806	      1.53288135	      0.02529143	     -0.49240916	      1.41496740	      0.31616059	     -3.59601733	     10.49283223	      0.00000000	      0.00000000	      7.80520067	      2.06367045	     -7.92412764	    -42.91169124	    -42.20772144	     13.19534093	    129.29333559	     89.32850638	    -15.92675302	    -22.85795980	    -26.03889371	    -52.65565867	     24.68882278	    126.57742385	     88.82800770	     -4.90072986	    -14.23508275
      2.23333333	      0.69194002	     -0.93377126	     82.81138022	      0.19996583	      0.52398854	      0.98575965	      4.49383806	      2.51027390	      5.24329677	     11.80765751	      0.20608250	     35.04850997	     10.14914441	      0.00000000	     -0.46268631	     -1.76230029	      0.88808266	      6.97507454	      0.12173802	     26.74763263	    -13.45381052	      0.00000000	      0.02663871	     -0.33536303	      2.01238349	      0.04947074	     -0.44603283	      2.13815746	      0.04376473	     -0.81540168	      2.13815746	      0.03044538	     -0.81540168	      1.76083555	      0.02473670	     -0.68387230	      1.63506159	      0.01522136	     -0.51947734	      1.50928762	      0.19027763	     -3.79369371	     11.19227326	      0.00000000	      0.00000000	      7.13543966	      2.26258479	     -8.71074328	    -45.27339744	    -42.05510283	     12.09462858	    129.57817258	     89.32334425	    -15.90819159	    -23.60445575	    -26.47931259	    -53.02572597	     24.85729384	    127.04016708	     88.79329861	     -5.24623077	    -14.80840867
